<svg width="1297" height="1297" xmlns="http://www.w3.org/2000/svg" xmlns:xlink="http://www.w3.org/1999/xlink" overflow="hidden"><defs><clipPath id="clip0"><rect x="172" y="390" width="1297" height="1297"/></clipPath></defs><g clip-path="url(#clip0)" transform="translate(-172 -390)"><path d="M174.5 1038.5C174.5 681.724 463.724 392.5 820.5 392.5 1177.28 392.5 1466.5 681.724 1466.5 1038.5 1466.5 1395.28 1177.28 1684.5 820.5 1684.5 463.724 1684.5 174.5 1395.28 174.5 1038.5Z" stroke="#FFFFFF" stroke-width="4.58333" stroke-miterlimit="8" fill="#009FD9" fill-rule="evenodd"/><path d="M1289.33 1005.99C1299.18 1266.37 1101.6 1488.19 848.008 1501.45 785.708 1504.71 723.567 1494.92 665.367 1472.67" stroke="#FFFFFF" stroke-width="59.5833" stroke-miterlimit="8" fill="none" fill-rule="evenodd"/><path d="M730.15 1491.69C712.926 1245.23 896.809 1030.46 1140.86 1011.99 1198.22 1007.65 1255.81 1014.62 1310.43 1032.52" stroke="#FFFFFF" stroke-width="59.5833" stroke-miterlimit="8" fill="none" fill-rule="evenodd"/><path d="M695.598 1482.75C459.798 1422 317.177 1178.78 377.046 939.499 436.915 700.219 676.602 555.495 912.402 616.247 962.912 629.26 1010.75 651.266 1053.68 681.239" stroke="#FFFFFF" stroke-width="60.7292" stroke-miterlimit="8" fill="none" fill-rule="evenodd"/><path d="M1126.8 865.305C1062.64 828.87 1027.75 758.854 1048.86 708.92 1069.97 658.987 1139.09 648.044 1203.25 684.48 1213.14 690.098 1222.57 696.677 1231.32 704.056" stroke="#FFFFFF" stroke-width="91.6667" stroke-miterlimit="8" fill="none" fill-rule="evenodd"/><path d="M0 0 278.257 230.762" stroke="#FFFFFF" stroke-width="68.75" stroke-linecap="round" stroke-linejoin="bevel" stroke-miterlimit="10" fill="none" fill-rule="evenodd" transform="matrix(1 0 0 -1 748.5 1480.26)"/><path d="M0 0 138.359 185.625" stroke="#FFFFFF" stroke-width="53.8542" stroke-linecap="square" stroke-linejoin="bevel" stroke-miterlimit="10" fill="none" fill-rule="evenodd" transform="matrix(-1 0 0 1 1256.36 698)"/><path d="M1230.2 757.014 1299.56 808.002" stroke="#FFFFFF" stroke-width="68.75" stroke-linecap="round" stroke-linejoin="bevel" stroke-miterlimit="10" fill="none" fill-rule="evenodd"/><path d="M1165.5 845.018 1234.87 896.006" stroke="#FFFFFF" stroke-width="68.75" stroke-linecap="round" stroke-linejoin="bevel" stroke-miterlimit="10" fill="none" fill-rule="evenodd"/></g></svg>